HIERARCHY
ROOT Hips
{
  OFFSET 5.84602e-005 68.8428 3.50346
  CHANNELS 6 Xposition Yposition Zposition Zrotation Xrotation Yrotation
  JOINT Spine
  {
    OFFSET 0 8.597 -4.6522
    CHANNELS 3 Zrotation Xrotation Yrotation
    JOINT Spine1
    {
      OFFSET 0 7.8454 0.4098
      CHANNELS 3 Zrotation Xrotation Yrotation
      JOINT Spine2
      {
        OFFSET 0 9.7078 -2.1609
        CHANNELS 3 Zrotation Xrotation Yrotation
        JOINT Neck
        {
          OFFSET 0 21.8761 -0.4549
          CHANNELS 3 Zrotation Xrotation Yrotation
          JOINT Head
          {
            OFFSET 0 12.3537 3.3602
            CHANNELS 3 Zrotation Xrotation Yrotation
            End Site
            {
              OFFSET 0.0001 18.9506 0.5657
            }
          }
        }
        JOINT LeftShoulder
        {
          OFFSET 2.2086 21.1115 7.2329
          CHANNELS 3 Zrotation Xrotation Yrotation
          JOINT LeftArm
          {
            OFFSET 13.1193 3.0282 -4.8998
            CHANNELS 3 Zrotation Xrotation Yrotation
            JOINT LeftForeArm
            {
              OFFSET 27.4081 -0.0973053 -0.2375
              CHANNELS 3 Zrotation Xrotation Yrotation
              JOINT LeftHand
              {
                OFFSET 22.8641 0.0662994 -0.1369
                CHANNELS 3 Zrotation Xrotation Yrotation
                JOINT LeftHandIndex1
                {
                  OFFSET 8.8614 0.775009 2.4612
                  CHANNELS 3 Zrotation Xrotation Yrotation
                  JOINT LeftHandIndex2
                  {
                    OFFSET 3.3146 -0.808304 0.5841
                    CHANNELS 3 Zrotation Xrotation Yrotation
                    JOINT LeftHandIndex3
                    {
                      OFFSET 2.2628 -0.552002 0.3989
                      CHANNELS 3 Zrotation Xrotation Yrotation
                      End Site
                      {
                        OFFSET 1.6102 -0.4807 0.2612
                      }
                    }
                  }
                }
                JOINT LeftHandMiddle1
                {
                  OFFSET 8.9937 0.895004 0.2143
                  CHANNELS 3 Zrotation Xrotation Yrotation
                  JOINT LeftHandMiddle2
                  {
                    OFFSET 4.0984 0.0113983 -0.0242
                    CHANNELS 3 Zrotation Xrotation Yrotation
                    JOINT LeftHandMiddle3
                    {
                      OFFSET 2.2716 0.00689697 -0.0138001
                      CHANNELS 3 Zrotation Xrotation Yrotation
                      End Site
                      {
                        OFFSET 2.0404 -0.1441 0.0027
                      }
                    }
                  }
                }
                JOINT LeftHandRing1
                {
                  OFFSET 8.5234 0.597198 -2.0164
                  CHANNELS 3 Zrotation Xrotation Yrotation
                  JOINT LeftHandRing2
                  {
                    OFFSET 3.7188 -0.188293 -0.2328
                    CHANNELS 3 Zrotation Xrotation Yrotation
                    JOINT LeftHandRing3
                    {
                      OFFSET 2.1191 -0.106598 -0.1332
                      CHANNELS 3 Zrotation Xrotation Yrotation
                      End Site
                      {
                        OFFSET 1.8737 -0.2304 -0.0886
                      }
                    }
                  }
                }
                JOINT LeftHandPinky1
                {
                  OFFSET 7.9094 -0.601089 -3.4825
                  CHANNELS 3 Zrotation Xrotation Yrotation
                  JOINT LeftHandPinky2
                  {
                    OFFSET 2.2874 -0.477005 -0.6314
                    CHANNELS 3 Zrotation Xrotation Yrotation
                    JOINT LeftHandPinky3
                    {
                      OFFSET 1.6774 -0.349396 -0.4633
                      CHANNELS 3 Zrotation Xrotation Yrotation
                      End Site
                      {
                        OFFSET 1.4888 -0.4091 -0.3416
                      }
                    }
                  }
                }
                JOINT LeftHandThumb1
                {
                  OFFSET 1.833 -1.3875 1.3896
                  CHANNELS 3 Zrotation Xrotation Yrotation
                  JOINT LeftHandThumb2
                  {
                    OFFSET 3.4129 -1.121 2.5732
                    CHANNELS 3 Zrotation Xrotation Yrotation
                    JOINT LeftHandThumb3
                    {
                      OFFSET 2.2474 -0.804199 1.6192
                      CHANNELS 3 Zrotation Xrotation Yrotation
                      End Site
                      {
                        OFFSET 1.6527 -0.5689 1.1317
                      }
                    }
                  }
                }
              }
            }
          }
        }
        JOINT RightShoulder
        {
          OFFSET -2.2086 21.1115 7.2329
          CHANNELS 3 Zrotation Xrotation Yrotation
          JOINT RightArm
          {
            OFFSET -13.1216 3.0287 -4.9007
            CHANNELS 3 Zrotation Xrotation Yrotation
            JOINT RightForeArm
            {
              OFFSET -27.4081 -0.0973053 -0.2375
              CHANNELS 3 Zrotation Xrotation Yrotation
              JOINT RightHand
              {
                OFFSET -22.8641 0.0664063 -0.1369
                CHANNELS 3 Zrotation Xrotation Yrotation
                JOINT RightHandIndex1
                {
                  OFFSET -8.8614 0.774994 2.4612
                  CHANNELS 3 Zrotation Xrotation Yrotation
                  JOINT RightHandIndex2
                  {
                    OFFSET -3.3146 -0.808304 0.5841
                    CHANNELS 3 Zrotation Xrotation Yrotation
                    JOINT RightHandIndex3
                    {
                      OFFSET -2.2628 -0.552002 0.3989
                      CHANNELS 3 Zrotation Xrotation Yrotation
                      End Site
                      {
                        OFFSET -1.6102 -0.4807 0.2612
                      }
                    }
                  }
                }
                JOINT RightHandMiddle1
                {
                  OFFSET -8.9937 0.894989 0.2143
                  CHANNELS 3 Zrotation Xrotation Yrotation
                  JOINT RightHandMiddle2
                  {
                    OFFSET -4.0984 0.0113983 -0.0242
                    CHANNELS 3 Zrotation Xrotation Yrotation
                    JOINT RightHandMiddle3
                    {
                      OFFSET -2.2716 0.00691223 -0.0138001
                      CHANNELS 3 Zrotation Xrotation Yrotation
                      End Site
                      {
                        OFFSET -2.0404 -0.1441 0.0027
                      }
                    }
                  }
                }
                JOINT RightHandRing1
                {
                  OFFSET -8.5234 0.597198 -2.0164
                  CHANNELS 3 Zrotation Xrotation Yrotation
                  JOINT RightHandRing2
                  {
                    OFFSET -3.7188 -0.188309 -0.2328
                    CHANNELS 3 Zrotation Xrotation Yrotation
                    JOINT RightHandRing3
                    {
                      OFFSET -2.1191 -0.106598 -0.1332
                      CHANNELS 3 Zrotation Xrotation Yrotation
                      End Site
                      {
                        OFFSET -1.8737 -0.2304 -0.0886
                      }
                    }
                  }
                }
                JOINT RightHandPinky1
                {
                  OFFSET -7.9094 -0.601105 -3.4825
                  CHANNELS 3 Zrotation Xrotation Yrotation
                  JOINT RightHandPinky2
                  {
                    OFFSET -2.2874 -0.477005 -0.6314
                    CHANNELS 3 Zrotation Xrotation Yrotation
                    JOINT RightHandPinky3
                    {
                      OFFSET -1.6774 -0.349396 -0.4633
                      CHANNELS 3 Zrotation Xrotation Yrotation
                      End Site
                      {
                        OFFSET -1.4888 -0.4091 -0.3416
                      }
                    }
                  }
                }
                JOINT RightHandThumb1
                {
                  OFFSET -1.833 -1.38751 1.3896
                  CHANNELS 3 Zrotation Xrotation Yrotation
                  JOINT RightHandThumb2
                  {
                    OFFSET -3.41299 -1.12099 2.5732
                    CHANNELS 3 Zrotation Xrotation Yrotation
                    JOINT RightHandThumb3
                    {
                      OFFSET -2.24741 -0.804108 1.6192
                      CHANNELS 3 Zrotation Xrotation Yrotation
                      End Site
                      {
                        OFFSET -1.6527 -0.5689 1.1317
                      }
                    }
                  }
                }
              }
            }
          }
        }
      }
    }
  }
  JOINT RightUpLeg
  {
    OFFSET -9.1966 3.8861 -0.7581
    CHANNELS 3 Zrotation Xrotation Yrotation
    JOINT RightLeg
    {
      OFFSET -0.7359 -41.0265 0
      CHANNELS 3 Zrotation Xrotation Yrotation
      JOINT RightFoot
      {
        OFFSET 0 -40.2855 0
        CHANNELS 3 Zrotation Xrotation Yrotation
        JOINT RightToeBase
        {
          OFFSET 0 -5.6122 11.7359
          CHANNELS 3 Zrotation Xrotation Yrotation
          End Site
          {
            OFFSET 0 0 7.8731
          }
        }
      }
    }
  }
  JOINT LeftUpLeg
  {
    OFFSET 9.1965 3.8864 -0.7581
    CHANNELS 3 Zrotation Xrotation Yrotation
    JOINT LeftLeg
    {
      OFFSET 0.7359 -41.0268 0
      CHANNELS 3 Zrotation Xrotation Yrotation
      JOINT LeftFoot
      {
        OFFSET 0 -40.2855 0
        CHANNELS 3 Zrotation Xrotation Yrotation
        JOINT LeftToeBase
        {
          OFFSET 0 -5.6122 11.7359
          CHANNELS 3 Zrotation Xrotation Yrotation
          End Site
          {
            OFFSET 0 0 7.8731
          }
        }
      }
    }
  }
}
MOTION
Frames:	4
Frame Time:	0.0333333
5.84602e-005 68.8428 3.50346 0 0 -0 0 0 -0 0 0 -0 0 0 -0 0 0 -0 0 0 -0 0 0 -0 0 0 -0 0 0 -0 0 0 -0 0 0 -0 0 0 -0 0 0 -0 0 0 -0 -0.0146107 -8.87603e-005 -2.63497e-007 2.99804e-018 -2.42657e-020 -1.42182e-022 0 0 -0 -0.0187562 -0.001176 5.858e-005 5.06224e-018 3.88251e-019 1.21329e-020 0 0 -0 -0.012269 -0.00324817 0.000675346 -1.74678e-018 3.88251e-019 -0 0 0 -0 0 0 -0 0 0 -0 0 0 -0 0 0 -0 0 0 -0 0 0 -0 0 0 -0 0 0 -0 0 0 -0 0 0 -0 0.0149955 -9.10982e-005 2.64101e-007 -9.69331e-018 1.21329e-020 -4.7394e-023 0 0 -0 0.0189956 -0.00119102 -5.96516e-005 -5.41541e-019 0 2.42657e-020 0 0 -0 0.0122698 -0.00324857 -0.000673756 -2.00796e-019 0 -1.94126e-019 0 0 -0 0 0 -0 0 0 -0 3.39842 1.33031 -0.0637918 -5.65207e-008 0.834868 -0.000436188 -3.39935 -2.16518 -0.0642563 -8.89002e-024 -1.18485e-023 -1.48106e-024 -3.39844 1.35642 0.0640283 -3.18788e-007 0.782166 -0.000588827 3.39931 -2.13858 0.0634662 1.1399e-023 0 -0 
0.650842 21.0196 5.38245 0 30.9992 -0 0.17602 0.218554 -0.0631918 0.352288 0.436984 -0.127055 0.352288 0.436987 -0.127055 -0.000337015 -0.000811106 0.000119749 -9.55267e-008 8.15812e-010 1.39092e-007 -29.828 -47.3234 -21.5241 -14.2979 -2.20114 24.1852 -56.4248 -12.2676 -15.936 -0.620479 2.48185 -8.00872 3.18055e-015 6.36111e-015 -0 1.59028e-015 3.18055e-015 6.36111e-015 -5.29669e-031 9.54166e-015 3.18055e-015 3.18055e-015 6.36111e-015 -0 -0.0146569 -8.96001e-005 -2.79572e-006 -7.06225e-031 -6.36111e-015 -6.36111e-015 3.18055e-015 6.36111e-015 -0 -0.0187065 -0.00117294 5.55273e-005 -1.47623e-007 2.53894e-007 3.35184e-007 3.18055e-015 6.36111e-015 -0 -0.0121928 -0.00322878 0.000671534 -1.48198e-007 2.54097e-007 3.35118e-007 3.18055e-015 6.36111e-015 -0 1.59028e-015 3.18055e-015 6.36111e-015 -5.29669e-031 9.54166e-015 3.18055e-015 30.3416 -47.4712 22.149 14.6877 -2.33709 -24.193 55.9279 -12.4377 15.7429 0.807699 2.84705 7.76783 3.18055e-015 -6.36111e-015 -0 -3.30438e-007 -2.94503e-006 1.52041e-006 2.71401e-008 -2.57229e-006 2.56787e-006 3.18055e-015 -6.36111e-015 -0 0.015012 -9.16126e-005 -2.21585e-007 1.41682e-007 -4.49974e-006 4.44776e-006 3.18055e-015 -6.36111e-015 -0 0.0189817 -0.00119282 -5.72767e-005 1.41638e-007 -4.49956e-006 4.44792e-006 3.18055e-015 -6.36111e-015 -0 0.0122387 -0.00323888 -0.000673717 1.41893e-007 -4.49977e-006 4.44766e-006 3.18055e-015 -6.36111e-015 -0 -3.30438e-007 -2.94503e-006 1.52041e-006 2.71401e-008 -2.57229e-006 2.56787e-006 -135.762 -40.6236 -151.957 -139.487 66.3912 141.583 -2.33122 -13.0179 -12.2886 9.06694e-007 -1.57565e-007 3.17271e-006 135.758 -40.643 151.926 139.545 66.4247 -141.659 2.33457 -13.0216 12.2769 -8.69993e-007 -5.75614e-008 -3.18097e-006 
0.650843 20.6476 5.70733 0 30.0575 -0 0.176642 -0.069892 -0.0605141 0.353212 -0.139956 -0.120812 0.353212 -0.139933 -0.120812 -0.000363905 0.377051 0.000123571 -1.32199e-008 0.294157 -1.27966e-007 -29.9496 -47.0519 -21.0931 -14.2979 -2.20116 24.1852 -55.9678 -12.4039 -15.9014 0.180367 3.03055 -6.41423 4.77083e-015 0 -3.18055e-015 1.59028e-015 0 3.18055e-015 3.18055e-015 3.18055e-015 -0 4.77083e-015 0 -3.18055e-015 -0.0146238 -8.43779e-005 1.04635e-006 1.60269e-007 -2.60785e-007 -3.34471e-007 4.77083e-015 0 -3.18055e-015 -0.0187609 -0.00117717 5.81614e-005 1.59896e-007 -2.60871e-007 -3.34476e-007 4.77083e-015 0 -3.18055e-015 -0.0122665 -0.00324711 0.000679972 -3.18055e-015 9.54166e-015 -0 4.77083e-015 0 -3.18055e-015 1.59028e-015 0 3.18055e-015 3.18055e-015 3.18055e-015 -0 30.212 -47.2087 21.5536 14.6877 -2.33709 -24.193 55.5694 -12.5466 15.7008 -0.0322672 3.36926 6.22589 -4.01687e-007 -6.93707e-007 -7.04172e-007 -4.01687e-007 -6.93706e-007 -7.04172e-007 1.59028e-015 -6.36111e-015 -6.36111e-015 -4.01687e-007 -6.93707e-007 -7.04172e-007 0.0150213 -9.14098e-005 6.90466e-006 1.59028e-015 9.54166e-015 3.18055e-015 -4.01687e-007 -6.93707e-007 -7.04172e-007 0.0189931 -0.00119746 -5.80958e-005 1.59028e-015 -6.36111e-015 6.36111e-015 -4.01687e-007 -6.93707e-007 -7.04172e-007 0.0123158 -0.00326345 -0.00067788 -1.76556e-031 3.18055e-015 3.18055e-015 -4.01687e-007 -6.93707e-007 -7.04172e-007 -4.01687e-007 -6.93706e-007 -7.04172e-007 1.59028e-015 -6.36111e-015 -6.36111e-015 -135.22 -40.618 -151.183 -140.376 65.872 142.357 -2.47109 -13.1818 -11.8369 -7.64699e-007 5.05831e-008 4.75061e-006 135.215 -40.6373 151.152 140.433 65.906 -142.433 2.47405 -13.1848 11.8245 -1.09916e-007 -2.99745e-007 2.38035e-008 
0.65084 20.2776 6.03256 0 29.1148 -0 0.177181 -0.358414 -0.0578005 0.354012 -0.716955 -0.114494 0.354012 -0.716963 -0.114494 7.20181e-007 0.753939 3.25455e-007 -2.16252e-007 0.588427 -5.97884e-008 -30.0737 -46.7815 -20.6639 -14.2979 -2.20115 24.1852 -55.5102 -12.54 -15.8657 0.969585 3.60386 -4.81955 -9.54166e-015 0 -0 4.36552e-007 -7.55625e-007 7.85105e-007 3.18055e-015 3.18055e-015 -0 -9.54166e-015 0 -0 -0.0146246 -8.89623e-005 2.48474e-006 -4.77083e-015 -9.54166e-015 -3.18055e-015 -9.54166e-015 0 -0 -0.0187799 -0.0011776 5.86935e-005 -6.36111e-015 -3.18055e-015 -0 -9.54166e-015 0 -0 -0.0123147 -0.00325886 0.000674794 -3.18055e-015 -6.36111e-015 -3.18055e-015 -9.54166e-015 0 -0 4.36552e-007 -7.55625e-007 7.85105e-007 3.18055e-015 3.18055e-015 -0 30.0877 -46.9459 20.9622 14.6877 -2.33709 -24.193 55.2107 -12.6552 15.658 -0.861954 3.91627 4.68417 -4.01894e-007 -6.92668e-007 -7.05055e-007 -3.27354e-007 -2.94884e-006 1.51148e-006 -4.01894e-007 -6.92668e-007 -7.05055e-007 -4.01894e-007 -6.92668e-007 -7.05055e-007 0.0149377 -9.16636e-005 1.12065e-006 -4.01897e-007 -6.9276e-007 -7.04964e-007 -4.01894e-007 -6.92668e-007 -7.05055e-007 0.0190124 -0.0011959 -5.55658e-005 -2.55819e-007 -2.62204e-006 1.16441e-006 -4.01894e-007 -6.92668e-007 -7.05055e-007 0.01227 -0.00324763 -0.000677716 -4.01912e-007 -6.92745e-007 -7.04969e-007 -4.01894e-007 -6.92668e-007 -7.05055e-007 -3.27354e-007 -2.94884e-006 1.51148e-006 -4.01894e-007 -6.92668e-007 -7.05055e-007 -134.677 -40.6065 -150.41 -141.23 65.3476 143.096 -2.60998 -13.3468 -11.3856 1.68041e-006 8.31818e-007 4.71528e-006 134.672 -40.6257 150.379 141.287 65.3822 -143.172 2.61258 -13.3492 11.3725 -9.8243e-007 -2.06575e-007 4.87603e-008 
